<svg width="393" height="59" viewBox="0 0 393 59" fill="none" xmlns="http://www.w3.org/2000/svg">
<path d="M54.8786 24.7231C57.4352 24.7231 59.6599 26.541 59.6599 30.8574V30.874C59.6599 34.9082 57.842 37.2988 54.8288 37.2988C52.6291 37.2988 50.9855 35.9956 50.6037 34.1611L50.5871 34.0698H52.6955L52.7204 34.1528C53.0358 34.9912 53.7746 35.5391 54.8288 35.5391C56.7297 35.5391 57.5349 33.6797 57.6262 31.3887C57.6262 31.2974 57.6345 31.2061 57.6345 31.1147H57.4684C57.0285 32.061 55.9826 32.8994 54.3391 32.8994C52.0397 32.8994 50.4294 31.2227 50.4294 28.9482V28.9316C50.4294 26.4995 52.2805 24.7231 54.8786 24.7231ZM54.8703 31.2559C56.2233 31.2559 57.2609 30.2764 57.2609 28.9233V28.9067C57.2609 27.5371 56.2233 26.4663 54.8952 26.4663C53.5754 26.4663 52.5212 27.5205 52.5212 28.8569V28.8735C52.5212 30.2598 53.509 31.2559 54.8703 31.2559ZM63.0204 29.2388C62.265 29.2388 61.7006 28.6577 61.7006 27.9272C61.7006 27.1885 62.265 26.6157 63.0204 26.6157C63.7841 26.6157 64.3402 27.1885 64.3402 27.9272C64.3402 28.6577 63.7841 29.2388 63.0204 29.2388ZM63.0204 35.3979C62.265 35.3979 61.7006 34.8252 61.7006 34.0864C61.7006 33.3477 62.265 32.7749 63.0204 32.7749C63.7841 32.7749 64.3402 33.3477 64.3402 34.0864C64.3402 34.8252 63.7841 35.3979 63.0204 35.3979ZM72.1915 37V34.7007H66.3312V32.9492C67.8834 30.2515 69.5851 27.4956 71.212 25.022H74.2418V32.9326H75.8522V34.7007H74.2418V37H72.1915ZM68.3233 32.9824H72.2247V26.7319H72.1002C70.8717 28.6079 69.4855 30.8242 68.3233 32.8579V32.9824ZM80.408 37V27.1304H80.2669L77.2869 29.2388V27.2217L80.4163 25.022H82.5496V37H80.408Z" fill="#404040"/>
<rect x="134" y="8" width="125" height="37" rx="18.5" fill="black"/>
<rect x="134" y="8" width="80" height="37" rx="18.5" fill="black"/>
<rect x="222" y="8" width="37" height="37" rx="18.5" fill="black"/>
<path d="M296.799 26C296.799 25.4477 297.247 25 297.799 25H298.799C299.352 25 299.799 25.4477 299.799 26V34C299.799 34.5523 299.352 35 298.799 35H297.799C297.247 35 296.799 34.5523 296.799 34V26Z" fill="#404040"/>
<path d="M301.799 24C301.799 23.4477 302.247 23 302.799 23H303.799C304.352 23 304.799 23.4477 304.799 24V34C304.799 34.5523 304.352 35 303.799 35H302.799C302.247 35 301.799 34.5523 301.799 34V24Z" fill="#404040"/>
<path d="M291.799 29.5C291.799 28.9477 292.247 28.5 292.799 28.5H293.799C294.352 28.5 294.799 28.9477 294.799 29.5V34C294.799 34.5523 294.352 35 293.799 35H292.799C292.247 35 291.799 34.5523 291.799 34V29.5Z" fill="#404040"/>
<path d="M286.799 32C286.799 31.4477 287.247 31 287.799 31H288.799C289.352 31 289.799 31.4477 289.799 32V34C289.799 34.5523 289.352 35 288.799 35H287.799C287.247 35 286.799 34.5523 286.799 34V32Z" fill="#404040"/>
<path d="M318.915 31.9187C320.334 30.6932 322.414 30.6933 323.834 31.9187C323.905 31.9847 323.947 32.0783 323.949 32.1766C323.951 32.2748 323.913 32.3694 323.844 32.4383L321.621 34.7283C321.556 34.7956 321.467 34.8337 321.375 34.8338C321.282 34.8338 321.193 34.7956 321.128 34.7283L318.904 32.4383C318.835 32.3694 318.797 32.2748 318.799 32.1766C318.801 32.0783 318.843 31.9846 318.915 31.9187ZM315.909 29.1785C318.968 26.2739 323.705 26.2739 326.764 29.1785C326.833 29.2466 326.873 29.3403 326.874 29.4383C326.875 29.5362 326.837 29.6306 326.769 29.7L325.484 31.0252C325.352 31.1605 325.137 31.1638 325.002 31.032C323.997 30.1036 322.691 29.5896 321.336 29.5896C319.981 29.5902 318.675 30.1041 317.672 31.032C317.536 31.1638 317.322 31.1605 317.189 31.0252L315.904 29.7C315.836 29.6306 315.799 29.5362 315.799 29.4383C315.8 29.3403 315.84 29.2466 315.909 29.1785ZM312.907 26.4422C317.599 21.8526 325 21.8526 329.692 26.4422C329.76 26.5104 329.799 26.6037 329.799 26.701C329.8 26.7981 329.762 26.8918 329.695 26.9607L328.409 28.2859C328.276 28.4219 328.061 28.4236 327.926 28.2898C326.139 26.5551 323.766 25.5878 321.299 25.5877C318.833 25.5878 316.46 26.5551 314.672 28.2898C314.538 28.4237 314.322 28.4221 314.19 28.2859L312.903 26.9607C312.836 26.8918 312.799 26.798 312.799 26.701C312.8 26.6037 312.839 26.5103 312.907 26.4422Z" fill="#404040"/>
<path opacity="0.35" d="M341.799 23.5273H358.799C360.717 23.5273 362.272 25.0822 362.272 27V32C362.272 33.9178 360.717 35.4727 358.799 35.4727H341.799C339.882 35.4727 338.327 33.9178 338.327 32V27C338.327 25.0822 339.882 23.5273 341.799 23.5273Z" stroke="black" stroke-width="1.05509"/>
<path opacity="0.4" d="M363.799 28V32.2203C364.648 31.8629 365.201 31.0314 365.201 30.1102C365.201 29.1889 364.648 28.3574 363.799 28Z" fill="black"/>
<path d="M339.799 27C339.799 25.8954 340.695 25 341.799 25H358.799C359.904 25 360.799 25.8954 360.799 27V32C360.799 33.1046 359.904 34 358.799 34H341.799C340.695 34 339.799 33.1046 339.799 32V27Z" fill="black"/>
</svg>
