<svg width="24" height="24" viewBox="0 0 24 24" fill="none" xmlns="http://www.w3.org/2000/svg">
<g clip-path="url(#clip0_141_735)">
<path d="M15.97 22.4475C15.988 21.7975 16 20.9925 16 20C16 18.2175 15.9615 17.038 15.9195 16.2795C15.8755 15.489 15.412 14.8325 14.6325 14.693C14.0455 14.588 13.1975 14.5 12 14.5C10.8025 14.5 9.955 14.5875 9.3675 14.693C8.588 14.8325 8.1245 15.4885 8.0805 16.2795C8.0385 17.038 8 18.217 8 20C8 20.992 8.012 21.7975 8.03 22.4475M3.045 3.458C3.3835 2.556 4.1565 1.903 5.1145 1.797C6.3945 1.6555 8.5775 1.5 12 1.5C15.4225 1.5 17.605 1.655 18.8855 1.797C19.8435 1.9035 20.6165 2.556 20.9545 3.458C22.5 7.5815 22.5 8.868 22.5 8.868C22.5005 9.21318 22.4329 9.55507 22.3013 9.87415C22.1696 10.1932 21.9764 10.4833 21.7326 10.7277C21.4889 10.9721 21.1993 11.1661 20.8806 11.2986C20.5619 11.4311 20.2202 11.4995 19.875 11.5C18.425 11.5 17.25 10.322 17.25 8.8685C17.2508 9.56553 16.9747 10.2343 16.4824 10.7278C15.9902 11.2213 15.322 11.4991 14.625 11.5C13.175 11.5 12 10.322 12 8.8685C12.0008 9.56553 11.7247 10.2343 11.2324 10.7278C10.7402 11.2213 10.072 11.4991 9.375 11.5C7.925 11.5 6.75 10.322 6.75 8.8685C6.7508 9.56553 6.4747 10.2343 5.98243 10.7278C5.49016 11.2213 4.82204 11.4991 4.125 11.5C2.675 11.5 1.5 10.322 1.5 8.8685C1.5 8.8685 1.5 7.581 3.045 3.458Z" stroke="#A2A2A2" stroke-width="1.5" stroke-linecap="round" stroke-linejoin="round"/>
<path d="M2.5 10.9351V15.0001C2.5 17.2231 2.5895 18.8816 2.689 20.0376C2.7975 21.3056 3.797 22.2416 5.067 22.3191C6.5365 22.4091 8.809 22.5001 12 22.5001C15.191 22.5001 17.4635 22.4091 18.933 22.3191C20.203 22.2416 21.2025 21.3056 21.311 20.0376C21.411 18.8816 21.5 17.2231 21.5 15.0001V10.9351" stroke="#A2A2A2" stroke-width="1.5" stroke-linecap="round" stroke-linejoin="round"/>
</g>
<defs>
<clipPath id="clip0_141_735">
<rect width="24" height="24" fill="white"/>
</clipPath>
</defs>
</svg>
