<svg width="74" height="78" viewBox="0 0 74 78" fill="none" xmlns="http://www.w3.org/2000/svg">
<path d="M30.4136 11.4593C31.6684 10.9282 33.2331 11.4578 33.9075 12.6418C34.5515 13.7727 34.149 15.0891 33.0183 15.6679L38.9265 26.0408C44.9386 24.9897 51.4743 27.8349 54.5474 33.2296L66.2493 53.7743C68.6901 58.0595 66.9867 63.0916 62.4454 65.0141L48.0534 71.1053C43.5117 73.0275 37.8513 71.1119 35.4104 66.8265L23.7085 46.2819C20.6379 40.8902 22.018 34.6967 26.6525 31.2377L20.7433 20.8631C19.5206 21.2803 18.0661 20.75 17.4219 19.6192C16.7475 18.4351 17.2183 17.0441 18.4732 16.513L30.4136 11.4593Z" fill="#D0E9EC"/>
<path d="M30.4136 11.4593C31.6684 10.9282 33.2331 11.4578 33.9075 12.6418C34.5515 13.7727 34.149 15.0891 33.0183 15.6679L38.9265 26.0408C44.9386 24.9897 51.4743 27.8349 54.5474 33.2296L66.2493 53.7743C68.6901 58.0595 66.9867 63.0916 62.4454 65.0141L48.0534 71.1053C43.5117 73.0275 37.8513 71.1119 35.4104 66.8265L23.7085 46.2819C20.6379 40.8902 22.018 34.6967 26.6525 31.2377L20.7433 20.8631C19.5206 21.2803 18.0661 20.75 17.4219 19.6192C16.7475 18.4351 17.2183 17.0441 18.4732 16.513L30.4136 11.4593Z" fill="#D0E9EC"/>
<rect width="17.9009" height="4.93458" rx="2.46729" transform="matrix(0.920913 -0.389767 0.494929 0.868933 16.3357 17.418)" fill="#D9D9D9" fill-opacity="0.66"/>
<rect width="12.0531" height="9.16222" transform="matrix(0.920913 -0.389767 0.494929 0.868933 21.2888 20.6433)" fill="#D9D9D9" fill-opacity="0.48"/>
<path d="M16.7638 10.5909C16.3267 9.90662 16.5836 9.06857 17.3269 8.75397L24.2508 5.82351C24.9944 5.5088 25.921 5.84642 26.2815 6.56342L33.4638 20.8475C33.7988 21.5137 33.5197 22.2655 32.8287 22.5579L27.4339 24.8412C26.7427 25.1338 25.8816 24.8641 25.4752 24.2278L16.7638 10.5909Z" fill="#A68F6B"/>
<path d="M26.2458 36.9029C24.5009 38.3726 25.1483 41.0854 25.6901 42.258L27.5442 42.1927C28.6208 42.1548 31.2902 44.866 31.7881 45.5085C32.286 46.151 37.7532 48.6537 38.8691 49.4394C39.9849 50.2252 41.5439 53.6906 42.1944 54.6028C42.8449 55.5149 44.6315 56.8821 45.3555 57.4067C46.0794 57.9312 48.031 60.6677 48.1169 61.3798C48.1855 61.9494 50.0045 63.7518 50.9055 64.5818C52.0997 64.1914 54.576 63.3414 54.9271 63.065C55.2782 62.7886 56.1104 62.5832 56.4826 62.5151C61.7636 60.0848 62.209 56.5378 61.7715 55.068C60.4628 54.5091 57.6354 53.3436 56.7956 53.1532C55.7458 52.9151 56.5249 50.9075 55.5492 49.2917C54.5736 47.6759 50.2618 46.2877 48.1028 45.3187C45.9438 44.3496 46.0859 41.0443 45.5484 40.0731C44.7992 37.8443 41.4152 39.6687 40.1145 37.3493C38.8138 35.0299 37.4929 33.0413 36.5495 32.6895C35.6062 32.3377 36.0128 30.7282 34.93 30.2163C33.8472 29.7044 28.427 35.0659 26.2458 36.9029Z" fill="#F8F6E1"/>
<path d="M37.3684 38.5796C37.4399 38.6493 37.5115 38.7191 37.7366 39.0735C37.9618 39.4279 38.3384 40.0649 38.7264 40.7212" stroke="#E2DCC2" stroke-width="0.42875" stroke-linecap="round"/>
<path d="M37.7336 38.4355C38.7623 39.6977 39.1677 40.1769 39.6315 40.7679C39.7163 40.876 39.7865 40.9311 39.8644 40.9798C40.0203 41.0774 40.6779 41.0906 41.4966 41.0689C41.8486 41.0597 39.7366 40.7314 39.4388 40.6885C39.981 40.8787 40.6441 41.0475 41.2293 41.0926C41.5579 41.1034 41.9507 41.0895 42.3555 41.0752" stroke="#E2DCC2" stroke-width="0.42875" stroke-linecap="round"/>
<path d="M25.9695 41.285C25.8717 40.6088 25.8122 39.0599 25.7701 38.3101C25.7184 37.3892 25.9847 36.6593 26.3669 36.0694C26.6188 35.6805 27.0199 35.5999 27.5731 35.3035C28.1103 35.0155 28.7521 34.4038 29.6799 33.7561C30.4525 33.2167 31.1206 32.8573 31.3837 32.6659C31.652 32.5176 32.4002 32.0127 33.344 31.3155C33.6782 31.059 33.7184 30.9998 33.8921 30.8465" stroke="#E2DCC2" stroke-width="0.42875" stroke-linecap="round"/>
<path d="M33.2932 46.1064C33.3281 46.1341 33.6235 46.3554 34.1372 46.7235C34.5602 46.9937 34.873 47.1884 35.2448 47.379C35.4962 47.487 35.8749 47.6182 36.2704 47.7969" stroke="#E2DCC2" stroke-width="0.42875" stroke-linecap="round"/>
<path d="M35.3184 47.4363C36.9244 47.6687 37.8477 47.7995 38.2358 47.9306C39.013 48.2791 39.5914 48.5118 39.7593 48.5204C39.8487 48.5317 39.9464 48.5571 40.2376 48.5766" stroke="#E2DCC2" stroke-width="0.42875" stroke-linecap="round"/>
<path d="M37.7725 48.3569C38.2996 48.5407 39.121 48.746 39.9951 48.9267C40.3194 48.9967 40.4014 49.0227 40.4995 49.0414C40.5977 49.0601 40.7094 49.0706 40.925 49.1216" stroke="#E2DCC2" stroke-width="0.42875" stroke-linecap="round"/>
<path d="M39.8987 48.939C40.0799 49.395 40.2611 49.851 40.4006 50.2722C40.5401 50.6934 40.6323 51.0658 40.7076 51.4879C40.7828 51.9101 40.8383 52.3705 40.885 52.7577" stroke="#E2DCC2" stroke-width="0.42875" stroke-linecap="round"/>
<path d="M40.6653 49.7439C40.9714 50.4425 41.3848 51.746 41.5059 52.0921C41.5344 52.1935 41.5483 52.3087 41.5772 52.4178C41.6061 52.5269 41.6497 52.6265 41.758 52.8583" stroke="#E2DCC2" stroke-width="0.42875" stroke-linecap="round"/>
<path d="M53.5325 48.5898C54.1335 49.2238 54.6687 49.7015 55.023 49.9885C55.3329 50.2396 55.3291 50.8001 55.5157 51.6899C55.5799 52.0875 55.6562 52.7206 55.8167 53.3315C55.9771 53.9424 56.2193 54.5119 56.4794 55.1859" stroke="#E2DCC2" stroke-width="0.42875" stroke-linecap="round"/>
<path d="M56.3755 52.7375C56.8108 54.3692 57.0255 55.0916 57.1188 55.5995C57.1672 55.863 57.3 56.047 57.4098 56.1669C57.6681 56.4487 58.1676 56.513 58.6078 56.5923C58.7221 56.6104 58.8338 56.6209 58.9882 56.6446C59.1427 56.6683 59.3364 56.7048 59.5837 56.7408" stroke="#E2DCC2" stroke-width="0.42875" stroke-linecap="round"/>
<path d="M55.6934 52.2358C55.7769 52.6669 55.9845 53.5962 56.1988 54.055C56.4686 54.7037 56.6395 54.9315 56.7493 55.0513C56.8051 55.1153 56.8609 55.1856 56.9713 55.2999" stroke="#E2DCC2" stroke-width="0.42875" stroke-linecap="round"/>
<path d="M44.0896 56.0166C44.5203 56.4363 45.2438 57.1425 46.0632 57.8051C46.8781 58.399 47.2255 58.6347 47.4469 58.8885C47.5619 59.0449 47.6822 59.2575 47.9595 59.5586" stroke="#E2DCC2" stroke-width="0.42875" stroke-linecap="round"/>
<path d="M48.5879 60.8064C48.9685 61.7345 49.6574 63.4662 49.814 63.9071C49.853 64.0299 49.8878 64.1876 49.9414 64.3688C49.995 64.5499 50.0665 64.7497 50.1719 64.8231" stroke="#E2DCC2" stroke-width="0.42875" stroke-linecap="round"/>
<path d="M49.2651 60.8701C49.9843 62.215 50.2174 62.8194 50.4119 63.5127C50.5686 64.0712 50.8325 64.3601 51.0328 64.6314C51.2053 64.8649 52.7343 64.4998 54.521 63.9856C55.107 63.8169 55.3919 63.7051 55.4771 63.6802C55.3598 63.6769 55.1696 63.698 54.9982 63.726C54.9036 63.7367 54.7937 63.7406 54.6803 63.7446" stroke="#E2DCC2" stroke-width="0.42875" stroke-linecap="round"/>
<path d="M51.0247 63.5668C51.3459 63.6132 52.1853 63.599 53.3365 63.5076C54.0739 63.3875 54.5934 63.3096 55.0128 63.2876C55.1807 63.2745 55.2575 63.2573 55.3367 63.2396" stroke="#E2DCC2" stroke-width="0.42875" stroke-linecap="round"/>
<path d="M51.4007 63.1159C52.5706 63.3523 54.1779 63.1792 54.7497 63.013C55.0799 62.917 55.402 62.7419 56.0526 62.4567C56.6056 62.2142 57.3029 61.8587 58.7323 61.2469C59.7624 60.6909 60.0253 60.4915 60.1804 60.3915C60.2464 60.3379 60.2866 60.2787 60.328 60.2177" stroke="#E2DCC2" stroke-width="0.42875" stroke-linecap="round"/>
<path d="M55.9558 63.2179C56.5426 62.8504 57.6379 62.3008 58.8759 61.7319C59.619 61.3904 59.9579 61.1221 60.2197 60.8501C60.4027 60.66 60.516 60.4596 60.495 60.4089C60.1983 59.6902 59.1126 61.0914 58.5368 61.3957C57.2696 62.0652 56.5081 62.3498 55.6375 62.6664C55.0978 62.8627 53.508 63.0397 52.6118 63.1678C52.2846 63.2146 51.9247 63.3451 51.5772 63.4449C51.4059 63.4941 51.2022 63.4441 50.986 63.3646C50.3848 63.1434 50.1252 62.5782 49.7787 62.0801C49.5493 61.7502 49.3185 61.4392 49.2719 61.198C49.1775 60.7085 50.5844 62.076 51.5767 62.515C52.1973 62.7504 53.0051 62.8542 54.711 62.795C55.8286 62.6987 57.4577 62.4678 59.1837 62.2284" stroke="#E2DCC2" stroke-width="0.42875" stroke-linecap="round"/>
<path d="M45.975 43.7989C45.9831 43.8667 46.0498 44.6255 46.1383 45.7735C46.1643 46.1977 46.1519 46.3003 46.1414 46.3192C46.1309 46.3381 46.1227 46.2703 46.1143 46.2005" stroke="#E2DCC2" stroke-width="0.42875" stroke-linecap="round"/>
<path d="M46.2859 44.8193C46.3187 44.8862 46.442 45.5977 46.6005 46.6518C46.647 47.0859 46.6808 47.4722 46.7414 47.8721C46.7625 47.9444 46.764 47.7515 46.7656 47.5527" stroke="#E2DCC2" stroke-width="0.42875" stroke-linecap="round"/>
<path d="M47.3448 44.8855C47.424 45.4399 47.5431 46.4241 47.5399 46.7622C47.563 47.0065 47.5619 47.2035 47.5396 47.3299C47.5352 47.399 47.5447 47.4781 47.5546 47.5596" stroke="#E2DCC2" stroke-width="0.42875" stroke-linecap="round"/>
<path d="M39.3796 49.218C40.3225 48.9811 41.0965 48.6566 41.6948 48.4029C42.2537 48.1659 42.5353 47.7882 42.8826 47.4689C43.2976 47.0874 43.6417 46.6894 43.9136 46.419C44.2418 46.0929 44.5005 45.7299 44.7032 45.3875C44.9601 44.9536 45.4566 44.4144 45.837 44.1012C45.9814 43.9822 46.2225 44.0126 46.4097 44.052C46.6147 44.0952 46.71 44.3479 46.8199 44.5016C47.0548 44.8302 46.7693 45.3297 46.4829 45.7308C45.9844 46.4292 44.956 47.4162 43.3496 48.665C42.3299 49.4578 41.7985 49.5589 41.3855 49.7603C40.8646 50.0143 40.2859 50.3194 39.862 50.4281C39.5948 50.1597 39.3539 49.8335 39.1273 49.4795C39.0921 49.3597 39.0744 49.2131 39.0562 49.062" stroke="#B7A99E" stroke-width="0.42875" stroke-linecap="round"/>
<path d="M39.0549 49.5386C39.2001 49.7736 39.3674 50.0886 39.418 50.0846C39.6065 50.0694 39.4181 49.8204 39.4658 49.7226C39.4888 49.6752 39.6605 49.9295 39.8325 50.1507C39.8882 50.2223 39.9216 50.1952 39.9601 50.0539C40.0691 49.6528 40.1074 49.3482 40.1395 49.3695C40.2077 49.4146 40.2315 49.5906 40.3264 49.5367C40.4214 49.4829 40.5484 49.2095 40.6344 49.0913C40.7204 48.9732 40.7615 49.0186 40.7948 49.1056C40.8748 49.3144 40.8777 49.4722 40.888 49.4892C40.9724 49.6286 41.4165 48.9711 41.5611 48.7851C41.6071 48.7259 41.2301 49.1631 40.7352 49.6346C40.1338 50.2074 39.9216 50.2554 39.89 50.2897C39.841 50.3429 40.2798 50.0864 40.9725 49.73C41.4256 49.4968 42.041 49.127 42.5974 48.7386C43.1538 48.3502 43.6213 47.9468 44.0292 47.6338C44.437 47.3209 44.771 47.1108 45.2087 46.8744C45.6464 46.638 46.1776 46.3817 46.5278 46.1893C47.0634 45.895 47.2407 45.6994 47.3401 45.5917C47.4429 45.4803 47.5393 45.2591 47.6489 44.945C47.7547 44.6417 47.6605 44.3247 47.5484 44.0602C47.5069 43.9624 47.4694 43.9463 47.4318 43.9319C47.3558 43.9028 47.2387 43.9093 47.0832 43.9425C46.884 43.9851 46.6519 44.0763 46.4526 44.1858C46.1765 44.3373 46.2486 44.5614 46.1731 44.8605C46.1101 45.1102 45.9391 45.2922 45.6394 45.7014C45.4076 46.0178 44.948 46.5462 44.5919 46.9231C44.2358 47.3001 43.9803 47.5074 43.5891 47.7688C43.1978 48.0301 42.6787 48.3392 42.3838 48.5205C41.9255 48.8023 41.7427 48.9938 41.5509 49.1588C41.4388 49.2552 41.3248 49.3361 41.1947 49.3956C41.0614 49.4566 40.9343 49.5142 40.1765 49.7861C40.0087 49.8463 39.9555 49.8559 39.9127 49.8604C39.8343 49.8686 39.7654 49.8439 39.705 49.8117C39.6743 49.7953 39.6706 49.7642 39.6883 49.727C39.7832 49.5274 40.1709 49.3709 40.4009 49.2772C40.5647 49.2105 40.7024 49.1177 40.8312 49.0349C40.9773 48.941 41.3866 48.7262 41.8627 48.446C42.0666 48.326 42.1655 48.2095 42.3615 48.0187C42.5929 47.7932 42.8915 47.4989 43.1755 47.2005C43.4654 46.896 43.655 46.7341 43.9003 46.4499C44.4602 45.8015 44.582 45.6795 44.7098 45.5404C44.8512 45.3866 44.9129 45.2168 45.0251 45.0581C45.2177 44.7855 45.3487 44.671 45.4993 44.5606C45.7869 44.3498 45.9203 44.2509 46.0474 44.151C46.2147 44.0196 46.414 43.9852 46.7239 43.9234C46.7896 43.9103 46.8249 43.9234 46.8525 43.9424C46.9768 44.0282 46.9363 44.1512 46.9431 44.5282C46.9456 44.6715 46.877 44.8586 46.7377 45.1464C46.5983 45.4341 46.3704 45.8193 46.2049 46.0796C46.0393 46.3398 45.9429 46.4634 45.7686 46.6493C45.3616 47.0833 45.0532 47.3446 44.9679 47.3837C44.7105 47.5017 44.4114 47.6603 44.1348 47.7813C43.6983 47.9724 43.337 48.1136 43.1226 48.175C42.9511 48.2241 42.7527 48.289 42.5466 48.3829C42.4978 48.4051 42.4511 48.4269 42.4191 48.4287C42.1553 48.444 42.8303 47.9094 43.2496 47.6225C43.8464 47.2141 44.3657 46.9342 44.5578 46.7855C44.6542 46.7109 44.7325 46.6325 44.8583 46.3199C44.9841 46.0073 45.1511 45.4612 45.2514 45.1548C45.3939 44.7195 45.556 44.5833 45.7355 44.3463C45.772 44.2981 45.7859 44.2766 45.7894 44.3163C45.7928 44.3561 45.7835 44.4574 45.6945 44.6967C45.6055 44.9361 45.4371 45.3104 45.3296 45.5322C45.222 45.754 45.1803 45.812 45.0437 45.9788C44.6822 46.4205 44.3939 46.7911 44.3276 46.9447C44.2997 47.0093 44.3132 47.0463 44.3216 47.0792C44.3299 47.1121 44.3403 47.1395 44.3737 47.1121C44.498 47.0099 44.62 46.8001 44.9861 46.4169C45.2435 46.1474 45.6839 45.7338 45.9513 45.4608C46.3297 45.0744 46.4195 44.8884 46.4303 44.7578C46.4537 44.4748 46.3812 44.342 46.4221 44.2596C46.449 44.2055 46.5939 44.5626 46.6908 44.9976C46.8255 45.6023 46.6072 45.8692 46.5616 45.9397C46.549 45.9592 46.6884 45.6254 46.9442 45.1563C47.1519 44.7755 47.052 44.6486 47.0604 44.5331C47.0676 44.4344 47.1702 44.3055 47.2728 44.1614C47.3153 44.1017 47.3864 44.301 47.4059 44.426C47.4289 44.5731 47.3014 44.7529 47.0683 45.0437C46.9031 45.2498 46.5885 45.5654 46.3496 45.7915C45.7827 46.3279 45.4997 46.4221 45.3728 46.5023C45.2112 46.6045 45.1744 46.7529 45.1271 46.7975C45.0827 46.8395 45.2196 46.6046 45.5795 46.1373C45.8882 45.7363 46.2487 45.5617 46.2958 45.5581C46.7835 45.5205 45.5997 46.1358 45.2884 46.3877C45.0227 46.6028 44.5937 47.013 44.3457 47.1905C44.0977 47.368 44.0579 47.3051 44.0707 47.1716C44.1026 46.8401 44.2847 46.5079 44.4241 46.2836C44.4893 46.1785 44.5768 46.0946 44.6344 46.0531C44.6919 46.0115 44.7254 46.0159 44.737 46.0454C44.7487 46.0749 44.7375 46.1293 44.6511 46.2383C44.5646 46.3472 44.4032 46.5089 44.1799 46.7162" stroke="#BA9E7D" stroke-width="0.42875" stroke-linecap="round"/>
<path d="M27.3001 37.8015C26.7247 39.2533 26.722 39.9595 26.773 40.5896C26.7819 40.6998 26.7232 40.3837 26.7326 39.6922C26.7419 39.0007 26.8127 37.9431 26.8416 37.3362C26.8895 36.3329 26.834 35.8034 26.8909 35.553C26.992 35.1083 26.6524 37.0749 26.5065 37.5476C26.4619 37.6922 26.3699 38.3782 26.2839 39.3775C26.219 40.1322 26.3366 40.7081 26.4403 41.0001C26.4672 41.0758 26.5289 40.6498 26.8731 39.8461C27.1331 39.2392 27.6565 38.2668 27.9304 37.7377C28.3472 36.9326 28.186 36.2253 28.3887 35.2173C28.4518 34.9034 28.6007 34.7881 28.6665 34.7624C28.9929 34.6349 28.019 35.6303 27.4643 36.1382C26.9381 36.62 27.022 37.5686 26.9194 38.4234C26.8143 39.2979 26.8803 39.924 26.9189 39.7821C27.1146 39.0631 27.0929 38.3716 27.1665 38.1516C27.2983 37.7569 26.8264 39.9937 26.896 40.4718C26.9725 40.9966 27.1764 41.3465 27.2895 41.4054C27.407 41.4666 27.6924 41.591 27.9271 41.7661C28.0604 41.8656 27.3905 41.7525 27.0524 41.6443C26.9198 41.5969 26.8663 41.5647 27.0327 41.564C27.1991 41.5633 27.587 41.595 27.9119 41.6303" stroke="#EDEAC9" stroke-width="0.42875" stroke-linecap="round"/>
<path d="M26.5559 38.7903C26.5929 38.789 26.6299 38.7877 26.9741 39.2747C27.3183 39.7618 27.9686 40.7372 28.4159 41.3492C28.8632 41.9612 29.0878 42.1802 29.2371 42.3145C29.3864 42.4488 29.4535 42.4918 29.3005 42.2937C28.7957 41.6402 28.1146 40.8022 27.6793 40.1477C27.5106 39.8942 27.4657 39.7916 27.456 39.8188C27.3138 40.218 27.8263 40.8268 28.0283 41.5609C28.1297 41.9291 28.7525 42.1947 29.0878 42.4132C29.6038 42.7495 30.2337 43.6758 30.4813 43.9519C30.5503 44.0288 29.8327 43.1959 29.4328 42.7698C29.6231 42.9242 30.612 43.8309 31.1893 44.3467C31.7665 44.8625 31.9021 44.9598 32.0418 45.0601" stroke="#EDEAC9" stroke-width="0.42875" stroke-linecap="round"/>
<path d="M37.0047 40.1408C37.573 40.6324 38.7397 41.7835 39.0005 42.2187C39.3251 42.7603 38.4887 40.4055 38.5336 39.9089C38.5762 39.4372 39.4209 41.2067 39.8832 42.187C40.0503 42.5415 40.0676 42.6099 40.0186 42.5616C39.822 42.3678 39.4223 41.9035 38.9904 41.54C38.872 41.4405 38.9254 41.5494 38.9859 41.6339C39.0464 41.7184 39.1039 41.7844 39.2103 41.8384C39.846 42.1612 40.8966 41.8381 41.0613 41.8083C41.628 41.7055 39.9932 41.9834 39.9275 42.0144C40.0674 42.0042 40.3 41.9503 40.6039 41.888C40.8009 41.8635 41.0846 41.8535 41.3769 41.8432" stroke="#EDEAC9" stroke-width="0.42875" stroke-linecap="round"/>
<rect width="17.9009" height="4.93458" rx="2.46729" transform="matrix(0.920913 -0.389767 0.494929 0.868933 16.3357 17.418)" fill="#D0E9EC" fill-opacity="0.67"/>
<path d="M39.7593 27.9227C40.4889 28.1366 42.1281 28.0357 43.1266 27.8248C43.7735 27.6882 44.0709 28.2104 44.4549 28.4148C45.1573 28.7889 45.6707 29.0703 46.6858 29.6353C46.9782 29.798 47.1466 30.0014 47.4195 30.2864C47.7711 30.6536 48.6546 31.418 49.6799 32.3897C50.6183 33.2789 51.31 33.866 51.5644 34.0995C52.1267 34.6158 50.0621 32.354 49.5157 31.817C48.5738 30.8913 47.3557 30.7548 46.9724 30.6198C46.5243 30.4619 45.8576 30.2021 45.35 30.0308C44.8668 29.8678 44.1555 29.7849 43.5772 29.6806C43.1477 29.6031 42.5785 29.3883 41.9411 29.246C41.1953 29.0796 40.5018 29.0605 40.0598 28.8888C39.3998 28.6323 41.6152 28.3953 42.426 28.4162C44.1434 28.4605 44.4525 29.2724 45.4469 29.7219C47.0624 30.4523 47.4515 30.7981 47.7885 31.258C48.4135 32.1112 49.1685 33.5824 49.5158 34.1609C49.8511 34.7196 50.4403 34.8107 50.9192 35.0009C51.2808 35.2769 51.5125 35.4231 51.6674 35.5494C51.7452 35.6045 51.8213 35.6415 52.1061 35.7495" stroke="#EBFCFF" stroke-width="0.939985" stroke-linecap="round"/>
<path d="M49.8816 32.917C50.1039 33.3073 50.3931 33.815 50.7156 34.3329C50.8634 34.5442 50.9792 34.6509 51.074 34.7515C51.1688 34.8521 51.2392 34.9435 51.4974 35.1686" stroke="#EBFCFF" stroke-width="0.939985" stroke-linecap="round"/>
<path d="M54.4195 39.2261C54.6024 39.5471 55.0008 40.1501 55.0906 40.1132C55.3438 40.009 54.9135 39.5082 54.8056 39.3348C54.7502 39.2457 54.9474 39.6653 55.0301 39.7621C55.1408 39.8918 54.9465 39.3711 54.8096 39.2112C54.7204 39.135 54.5909 39.0687 54.4754 39.0292C54.3599 38.9898 54.2622 38.9792 54.0928 38.9451" stroke="#EBFCFF" stroke-width="0.939985" stroke-linecap="round"/>
<path d="M18.6992 17.9653C18.7446 17.9807 18.9427 18.2953 19.1676 18.6902C19.1967 18.7413 19.0126 18.2893 18.9742 17.9302C18.9172 17.3972 20.2499 16.8372 21.1406 16.5038C21.4138 16.4015 21.8551 16.2103 21.9811 16.1916C22.6709 16.089 20.8141 16.8952 20.5201 17.0633C20.1452 17.2778 19.6607 17.6968 19.2968 18.1655C19.1655 18.3347 19.1323 18.4975 19.1726 18.698C19.1966 18.8171 19.2526 18.9682 19.313 18.9626C19.8694 18.9106 19.9187 18.0971 20.1587 17.7504C20.6587 17.0284 22.1939 16.2765 22.6994 16.0018C22.7847 15.9395 22.8722 15.8678 23.1463 15.734C23.4203 15.6002 23.8783 15.4064 24.3501 15.2067" stroke="#EBFCFF" stroke-width="0.939985" stroke-linecap="round"/>
<path d="M29.4585 52.9036C29.6718 53.278 30.294 54.1244 30.8121 54.7427C31.2953 55.3193 31.6803 55.8105 32.0307 56.2194C32.567 56.8452 33.2163 58.1343 33.7566 58.9389C34.0928 59.4394 34.9414 60.2139 35.842 61.4198C36.383 62.1443 37.1113 63.6062 37.5541 64.404C38.5537 66.2052 39.5832 67.8241 39.9771 68.0804C40.5144 68.2987 41.2038 68.5611 41.914 68.7943C42.1904 68.8806 42.296 68.902 42.5495 68.9296" stroke="#BDDCE1" stroke-width="0.939985" stroke-linecap="round"/>
<path d="M43.2122 67.9813C43.3169 67.6706 43.7654 67.3025 44.4335 66.7977C44.9088 66.4386 45.4484 66.0333 45.8928 65.7344C46.6138 65.3845 47.2757 65.0596 47.872 64.6964C48.0332 64.6054 48.2214 64.5258 48.4153 64.4437" stroke="#BDDCE1" stroke-width="0.939985" stroke-linecap="round"/>
<path d="M44.6712 69.3004C44.7088 69.2844 46.1046 68.7818 48.2798 68.0058C49.2524 67.6587 49.6426 67.5962 50.4061 67.3732C53.1426 66.574 53.5189 66.2007 54.8025 65.7242C55.9694 65.291 58.1169 64.3441 59.254 63.8297C60.6459 63.2002 60.7961 62.7441 61.1531 62.3366C61.5374 61.898 61.9193 61.4461 62.4195 60.8551C62.8643 60.3296 63.1258 60.0434 63.2746 59.6809C63.3111 59.592 63.2167 59.4948 63.1378 59.4384C62.9534 59.3605 62.7289 59.2993 62.5015 59.251C62.3897 59.2419 62.2856 59.2639 62.1782 59.2867" stroke="#BDDCE1" stroke-width="0.939985" stroke-linecap="round"/>
<path d="M30.174 51.1862C30.6532 52.0305 31.085 53.136 31.4155 54.2542C31.611 54.9154 32.7237 56.616 34.2691 58.9838C35.2568 60.4971 35.8707 61.1506 36.4612 61.7608C37.3663 62.6961 38.3314 64.1792 38.8134 64.8105C39.2469 65.3783 39.8716 65.9596 40.3761 66.579C40.5067 66.7394 40.6062 66.9141 40.7549 67.0036C40.9037 67.0931 41.0896 67.0978 41.3599 67.0629C41.6301 67.0281 41.9789 66.9536 41.7214 66.494C40.1635 63.7138 38.7934 63.3555 37.813 62.4739C36.3829 61.1879 35.6246 59.5612 34.1077 57.3101C33.2294 56.0068 31.6893 53.5547 30.85 52.219C29.7466 50.463 29.6217 49.8896 29.1927 48.884C29.0906 48.5798 29.0135 48.2687 28.8038 47.8426C28.594 47.4165 28.2538 46.8848 27.9033 46.337" stroke="#BDDCE1" stroke-width="0.939985" stroke-linecap="round"/>
<path d="M31.752 54.5159C31.7777 54.5611 32.4021 55.4484 33.5361 56.9922C34.4095 58.1813 35.6787 59.6723 37.0536 61.4548C38.4242 63.2317 39.2684 63.9712 39.896 64.4906C40.4936 64.9853 41.3661 65.3848 41.9746 65.7932C42.2511 65.9788 42.8639 66.2231 43.4359 66.6189C43.9862 66.9996 42.2986 67.4872 41.7403 67.6393C40.7596 67.9065 39.9603 66.9205 39.1945 66.3664C39.016 66.2136 38.9019 66.0655 38.7925 65.9264C38.683 65.7873 38.5818 65.6617 38.4384 65.4639" stroke="#BDDCE1" stroke-width="0.939985" stroke-linecap="round"/>
</svg>
